<?xml version="1.0" encoding="utf-8"?>
<!-- Generator: Adobe Illustrator 21.1.0, SVG Export Plug-In . SVG Version: 6.00 Build 0)  -->
<svg version="1.1" id="Icon" xmlns="http://www.w3.org/2000/svg" xmlns:xlink="http://www.w3.org/1999/xlink" x="0px" y="0px"
	 viewBox="0 0 16 16" style="enable-background:new 0 0 16 16;" xml:space="preserve">
<style type="text/css">
	.st0{fill:#007ABC;}
	.st1{fill:#FFFFFF;}
</style>
<title>utility-2_delete_16p_HVR</title>
<polygon class="st0" points="13,16 14,5 2,5 3,16 "/>
<path class="st0" d="M12,2l-1-1.4C10.8,0.2,10.4,0,10,0H6C5.6,0,5.2,0.2,5,0.6L4,2H2C1.4,2,1,2.4,1,3v1h14V3c0-0.6-0.4-1-1-1H12z"/>
<path class="st1" d="M6.4,2H6V1.5C6,1.2,6.1,1,6.4,1h3.3C9.9,1,10,1.2,10,1.5V2H6.4z"/>
<polygon class="st1" points="11,12.7 8.8,10.5 10.9,8.4 10.1,7.5 8,9.7 5.9,7.6 5.1,8.4 7.2,10.5 5,12.6 5.8,13.5 8,11.3 10.2,13.5 
	"/>
</svg>
