<?xml version="1.0" encoding="utf-8"?>
<!-- Generator: Adobe Illustrator 21.1.0, SVG Export Plug-In . SVG Version: 6.00 Build 0)  -->
<svg version="1.1" id="Layer_1" xmlns="http://www.w3.org/2000/svg" xmlns:xlink="http://www.w3.org/1999/xlink" x="0px" y="0px"
	 viewBox="0 0 16 16" style="enable-background:new 0 0 16 16;" xml:space="preserve">
<style type="text/css">
	.st0{fill:#007ABC;}
</style>
<path class="st0" d="M15,5V1.3h-1.2v0.9c0,1-0.7,1.7-1.6,1.7c-0.9,0-1.6-0.8-1.6-1.7V1.3H9.2v0.9c0,1-0.7,1.7-1.6,1.7
	C6.7,3.9,6,3.1,6,2.2V1.3H4.6v0.9c0,1-0.7,1.7-1.6,1.7S1.4,3.1,1.4,2.2V1.3H0.2V5H15z"/>
<path class="st0" d="M3.1,2.8L3.1,2.8c-0.4,0-0.6-0.3-0.6-0.6V0.6C2.5,0.3,2.7,0,3,0h0.1c0.3,0,0.6,0.3,0.6,0.6v1.7
	C3.7,2.6,3.4,2.8,3.1,2.8"/>
<path class="st0" d="M7.7,2.8L7.7,2.8C7.3,2.8,7,2.6,7,2.3V0.6C7,0.3,7.3,0,7.6,0h0.1C8,0,8.2,0.3,8.2,0.6v1.7
	C8.2,2.6,8,2.8,7.7,2.8"/>
<path class="st0" d="M12.3,2.8L12.3,2.8c-0.4,0-0.6-0.3-0.6-0.6V0.6C11.7,0.3,12,0,12.3,0h0.1C12.7,0,13,0.3,13,0.6v1.7
	C12.9,2.6,12.6,2.8,12.3,2.8"/>
<path class="st0" d="M0.2,6.2V16H15V6.2H0.2z M6.2,13.2H5.1v-3c0-0.1,0-0.1,0-0.2c0-0.1,0-0.2,0-0.3s0-0.2,0-0.3s0-0.2,0-0.3
	c0,0,0,0-0.1,0.1L4.9,9.3L4.8,9.4L4.7,9.5L4,10L3.5,9.3l1.9-1.4h0.8C6.2,7.9,6.2,13.2,6.2,13.2z M11.1,12.3
	c-0.1,0.2-0.2,0.4-0.4,0.6c-0.2,0.2-0.4,0.3-0.6,0.4c-0.3,0.1-0.6,0.1-0.9,0.1c-0.1,0-0.3,0-0.4,0c-0.1,0-0.3,0-0.4-0.1
	c-0.1,0-0.2-0.1-0.3-0.1s-0.2-0.1-0.3-0.1v-1c0.1,0,0.2,0.1,0.3,0.1s0.2,0.1,0.3,0.1s0.2,0.1,0.4,0.1c0.1,0,0.2,0,0.3,0
	c0.3,0,0.6-0.1,0.7-0.2c0.2-0.1,0.3-0.3,0.3-0.6S10,11.1,9.9,11c-0.2-0.1-0.4-0.2-0.8-0.2c-0.1,0-0.1,0-0.2,0c-0.1,0-0.1,0-0.2,0
	c-0.1,0-0.1,0-0.2,0c-0.1,0-0.1,0-0.2,0l-0.4-0.2L8,8h2.8v0.9H9l-0.1,1c0.1,0,0.2,0,0.3,0s0.2,0,0.4,0s0.4,0,0.6,0.1
	c0.2,0.1,0.4,0.2,0.5,0.3s0.3,0.3,0.3,0.5c0.1,0.2,0.1,0.4,0.1,0.7C11.2,11.8,11.1,12,11.1,12.3z"/>
</svg>
