<svg id="Icon" xmlns="http://www.w3.org/2000/svg" width="64" height="64" viewBox="0 0 64 64"><title>utility-2_delete_≤64p_HVR</title><polygon points="47.596 56.986 51 22 13 22 16.375 57 47.596 56.986" fill="#a4ce4e"/><path d="M50.857,13H44.14L41.373,8.887A3.774,3.774,0,0,0,38.286,7L25.714,7a3.825,3.825,0,0,0-3.24,1.744L19.86,13H13.143A3.028,3.028,0,0,0,10,16v3H54V16A3.028,3.028,0,0,0,50.857,13Z" fill="#a4ce4e"/><path d="M26.5,10h11A1.5,1.5,0,0,1,39,11.5V13a0,0,0,0,1,0,0H25a0,0,0,0,1,0,0V11.5A1.5,1.5,0,0,1,26.5,10Z" fill="#fff"/><rect id="_16p_Dimensions" data-name="16p Dimensions" x="6.877" y="7" width="50" height="50" fill="none"/><polygon points="41.375 46.314 34.45 39.383 41.109 32.686 38.556 30.125 32 36.806 25.386 30.274 22.833 32.835 29.344 39.383 22.625 46.107 25.178 48.668 32 41.928 38.822 48.875 41.375 46.314" fill="#fff"/></svg>