<svg id="Icon" xmlns="http://www.w3.org/2000/svg" viewBox="0 0 120 120"><defs><style>.cls-1{fill:#0061a0;}.cls-2{fill:#fff;}.cls-3{fill:#0090da;}</style></defs><title>hr_File-Storage-My-Files</title><g id="_Group_" data-name="&lt;Group&gt;"><path class="cls-1" d="M12.1,94.9a7.61,7.61,0,0,0,7.61,7.61H99.3A8.8,8.8,0,0,0,108,94l-.1-65.74H12Z"/><polygon class="cls-1" points="45.87 17.49 12 17.49 12 35.41 54.47 35.41 45.87 17.49"/><rect class="cls-2" x="18.33" y="35.41" width="83.76" height="58.85"/><path class="cls-3" d="M19.71,102.51h80.6a7.61,7.61,0,0,0,7.61-7.61h0V43.85H27.32V94.9a7.61,7.61,0,0,1-7.61,7.61Z"/><circle class="cls-2" cx="49.82" cy="73.18" r="5.59"/><circle class="cls-2" cx="68.05" cy="73.18" r="5.59"/><circle class="cls-2" cx="86.28" cy="73.18" r="5.59"/></g></svg>