<?xml version="1.0" encoding="utf-8"?>
<!-- Generator: Adobe Illustrator 21.1.0, SVG Export Plug-In . SVG Version: 6.00 Build 0)  -->
<svg version="1.1" id="Layer_1" xmlns="http://www.w3.org/2000/svg" xmlns:xlink="http://www.w3.org/1999/xlink" x="0px" y="0px"
	 viewBox="0 0 16 16" style="enable-background:new 0 0 16 16;" xml:space="preserve">
<style type="text/css">
	.st0{fill:none;}
	.st1{fill:#007ABC;}
	.st2{fill:#FFFFFF;}
</style>
<title>utility-2_security_16px_HVR</title>
<rect class="st0" width="16" height="16"/>
<path class="st1" d="M12,7V3.8c-0.2-2.1-1.9-3.6-4-3.7c-2.1,0-3.8,1.6-4,3.7V7H2v9h12V7H12z M6,3.8C6.1,2.7,7,2,8,2l0.1,0
	c1-0.1,1.8,0.7,1.9,1.7V7H6V3.8z"/>
<path class="st2" d="M9.5,11.5C9.5,12.3,8.8,13,8,13s-1.5-0.7-1.5-1.5S7.2,10,8,10S9.5,10.7,9.5,11.5"/>
</svg>
