<svg id="Icon" xmlns="http://www.w3.org/2000/svg" width="16" height="15.996" viewBox="0 0 16 15.996"><title>utility-2_delete_16p</title><rect id="_16p_Dimensions" data-name="16p Dimensions" width="16" height="16" fill="none"/><polygon points="13 16 14 5 2 5 3 16 13 16"/><path d="M14,2H12L10.982.6A1.2,1.2,0,0,0,10,0H6A1.215,1.215,0,0,0,4.969.558L4,2H2A1,1,0,0,0,1,3V4H15V3A1,1,0,0,0,14,2ZM10,2H6V1.456A.418.418,0,0,1,6.365,1h3.27A.418.418,0,0,1,10,1.456Z"/><polygon points="11 12.712 8.784 10.494 10.915 8.351 10.098 7.531 8 9.669 5.883 7.579 5.066 8.398 7.15 10.494 5 12.646 5.817 13.465 8 11.308 10.183 13.531 11 12.712" fill="#fff"/></svg>